<svg id="Layer_1" data-name="Layer 1" xmlns="http://www.w3.org/2000/svg" viewBox="0 0 47.55 47.55"><defs><style>.cls-1{fill:#394ca5;stroke:#5e87aa;stroke-width:2px;}.cls-2{fill:none;stroke:#fff;}</style></defs><rect class="cls-1" x="1" y="1" width="45.55" height="45.55" rx="4.88"/><path class="cls-2" d="M974.55,524.38l.39,7.61h-1a8.68,8.68,0,0,0-.78-2.88,5,5,0,0,0-2.16-2,8.07,8.07,0,0,0-3.54-.66h-5V551.2c0,2,.23,3.24.7,3.73a4.15,4.15,0,0,0,3.06,1h1.23v.88h-15v-.88h1.25a3.74,3.74,0,0,0,3.19-1.25c.39-.51.58-1.67.58-3.49V526.41h-4.26a12.57,12.57,0,0,0-3.53.34,4.77,4.77,0,0,0-2.33,1.74,6.69,6.69,0,0,0-1.15,3.5h-1l.42-7.61Z" transform="translate(-936.29 -516.57)"/></svg>